PathFileType	4	(X/Y/Z)	OpenSim_Sub03_EMGStiffKnee_Gyro.trc
DataRate	CameraRate	NumFrames	NumMarkers	Units	OrigDataRate	OrigDataStartFrame	OrigNumFrames
100	100	30	8	m	100	5698	7597
Frame#	Time	torso_imu_offset_imu	pelvis_imu_offset_imu	tibia_r_imu_offset_imu	femur_r_imu_offset_imu	tibia_l_imu_offset_imu	femur_l_imu_offset_imu	toes_r_imu_offset_imu	toes_l_imu_offset_imu
				X1	Y1	Z1	X2	Y2	Z2	X3	Y3	Z3	X4	Y4	Z4	X5	Y5	Z5	X6	Y6	Z6	X7	Y7	Z7	X8		Y8	Z8	

5698	56.97000000	-0.55732527	0.18590903	-0.02100374	-0.08347874	0.25733616	-0.15600754	2.24091098	-0.21382265	-0.11818184	-3.79942744	0.47225018	-0.39588095	0.92753495	0.60765483	1.26015561	0.16529216	0.10753226	0.78124416	0.42790368	-4.58020465	-1.34832769	0.59991763	-1.26252679	-0.14536471
5699	56.98000000	-0.52641266	0.23388635	-0.06787428	-0.08120704	0.27826628	-0.03026745	3.01139551	-0.51532967	-0.43987008	-3.78829436	0.15027198	-0.71900164	1.09438429	0.53586782	1.27627225	0.31008724	0.26579970	0.78279820	1.64170768	-4.13833225	-0.82682407	0.67323309	-1.60938037	-0.24789257
5700	56.99000000	-0.50429087	0.20642419	-0.08522501	-0.29029034	0.35195934	0.08812101	2.56924997	-0.86224142	-1.19122235	-3.26822232	0.30597807	-0.89044022	0.97040406	0.56728543	1.26651910	0.31989750	0.42114731	0.82690120	2.31392757	-2.39964086	-1.10218699	0.72301821	-1.96096703	-0.38343391
5701	57	-0.48934466	0.12731405	-0.08485049	-0.65425299	0.47068051	0.15529691	1.89378327	-0.31176217	-1.26468989	-2.56220416	0.12493210	-0.49422138	0.66356695	0.62667339	1.28940686	0.12912370	0.45233667	0.84455300	0.41626531	-0.32733781	-0.89208092	0.79962462	-2.31386759	-0.46577768
5702	57.01000000	-0.50501228	0.05454554	-0.03942564	-0.92752372	0.50821936	0.15932817	0.45339491	-0.21702160	-0.85029157	-0.29587414	-0.94567696	1.05519063	0.20237440	0.54206197	1.33611467	-0.19382628	0.38199326	0.77615477	0.06132052	-0.19554731	-0.32475490	0.77796610	-2.61976489	-0.40305800
5703	57.02000000	-0.52041822	-0.01622351	0.01875186	-0.96210463	0.45473757	0.14329458	-1.19197665	-0.99240055	-0.96153386	0.69633806	-0.42894839	0.93039165	-0.10871487	0.47796721	1.32495649	-0.49554193	0.31922007	0.64395641	0.39086420	-0.32623415	-0.08265622	0.53508958	-2.79683251	-0.17328013
5704	57.03000000	-0.50855197	-0.09140144	0.05233965	-0.77415861	0.35593696	0.10768045	-1.96103838	-0.84707778	-1.18196742	2.55843645	-0.07007135	-0.25908476	-0.38714661	0.44318036	1.24278790	-0.67163447	0.27138203	0.47210455	0.02631250	-0.10394522	0.05106684	0.24852092	-2.94978387	0.13386713
5705	57.04000000	-0.49024355	-0.13935028	0.07470806	-0.55528476	0.26187615	-0.01283934	-1.02103761	-0.43010507	-0.91775646	3.01108705	-0.09771427	-1.17645317	-0.63080323	0.33059230	1.19186012	-0.69648133	0.19862891	0.24156358	-0.05513035	-0.10905676	0.13235642	-0.18553901	-3.01360556	0.46908622
5706	57.05000000	-0.44939587	-0.14818272	0.10653860	-0.36476799	0.22653155	-0.09017014	0.77730496	-0.12773803	-0.54512430	1.46042783	-0.23456360	-1.79829423	-0.81386883	0.23607134	1.21563430	-0.59266605	0.16099547	0.01272947	-0.09517908	-0.05334669	0.19655417	-0.61331938	-2.98450291	0.76628299
5707	57.06000000	-0.34734361	-0.15398419	0.14925634	-0.22260695	0.24314904	-0.10941795	1.37281238	0.02027584	-0.42209120	-0.23399751	-0.37886104	-1.92499266	-1.02443813	0.17675871	1.15690631	-0.42452002	0.18944745	-0.12481961	-0.32057216	0.01377648	0.32614741	-0.96100620	-2.89463920	0.99869441
5708	57.07000000	-0.28655287	-0.15023703	0.17730400	-0.14363884	0.28777740	-0.14215360	0.69607949	-0.11703786	-0.40119336	-1.59000603	-0.34802525	-1.64656106	-1.16969898	0.09862239	1.00672352	-0.35633135	0.18242937	-0.16166131	-0.41441780	-0.01221782	0.44602858	-1.27811448	-2.88386234	1.12262306
5709	57.08000000	-0.25904186	-0.16780017	0.18019396	-0.11099915	0.34089493	-0.23411668	-0.21551712	-0.03899547	-0.26152068	-1.76785161	-0.31056801	-1.50750167	-1.07821663	0.03027515	0.87289473	-0.34924320	0.14016198	-0.12372862	-0.56853642	-0.00717739	0.58714613	-1.15379955	-2.17584938	0.88021295
5710	57.09000000	-0.21279587	-0.21199690	0.16948117	-0.12378090	0.38050799	-0.35598430	-0.90645252	-0.00038163	-0.13686260	-1.57406997	-0.25163950	-1.55163621	-0.66927058	0.03533204	0.73293264	-0.35305234	0.09857352	-0.04207385	-0.78103701	0.07576449	0.75234389	-0.69703605	-0.42448853	0.10177846
5711	57.10000000	-0.17697225	-0.26369449	0.15200772	-0.14675173	0.40489900	-0.47297343	-1.20461087	-0.00571406	-0.16387226	-1.50798520	-0.16231332	-1.63299489	-0.11039750	0.01372592	0.37910096	-0.32125589	0.07799143	0.07794847	-0.88489143	0.09695744	0.78914669	-0.22620171	0.13628683	-0.58582295
5712	57.11000000	-0.16286326	-0.30015082	0.15032475	-0.15725631	0.38759561	-0.57629746	-1.24697870	0.09306323	-0.11190499	-1.46018147	-0.11525826	-1.81713306	0.40057158	0.16416864	-0.49157051	-0.34958049	0.04740968	0.26912372	-0.82797009	0.11064574	0.75151353	0.12883092	0.44282796	-1.00837702
5713	57.12000000	-0.15517750	-0.31931768	0.15035660	-0.14125087	0.31936890	-0.64178074	-1.07967997	0.10326562	0.00136310	-1.45524730	-0.16644312	-1.93773287	0.50867091	0.22832890	-1.28004045	-0.31100966	0.01592053	0.38881482	-0.79245303	0.18126863	0.70819099	0.16933225	0.97993303	-1.08466247
5714	57.13000000	-0.14272474	-0.31633237	0.14938116	-0.07314287	0.22542988	-0.66372047	-0.80842793	0.15174802	-0.02668229	-1.31804324	-0.19534827	-1.94084840	0.17499004	-0.00669830	-1.28399002	-0.11101985	0.02667985	0.30769067	-0.82829118	0.23870901	0.69947614	0.34540713	1.22642105	-0.89121787
5715	57.14000000	-0.09294592	-0.30661985	0.14693753	0.04475728	0.14203769	-0.65515019	-0.73744644	0.22248266	-0.14676389	-1.02177189	-0.15942134	-1.87908769	0.15403910	0.00644393	-1.19695444	0.04687222	0.01747424	0.10177818	-0.73817911	0.22253467	0.72257098	0.58972843	1.39583351	-0.62250459
5716	57.15000000	-0.00889759	-0.30127893	0.13804331	0.19001285	0.10183121	-0.57327691	-0.88175596	0.16463354	-0.19834137	-0.73615764	-0.12369951	-1.76752267	0.28724089	0.10649045	-1.34615351	-0.00400147	-0.01352379	-0.10827432	-0.68442861	0.24503395	0.70587848	0.44676125	1.56992598	-0.36491887
5717	57.16000000	0.10437743	-0.29847388	0.09603565	0.29153032	0.08840984	-0.51756788	-0.90339096	0.08768058	-0.24212011	-0.52052477	-0.07527154	-1.60190438	0.31218985	0.08497013	-1.32232539	-0.11500080	-0.01531431	-0.26064004	-0.73691508	0.28057741	0.65386611	0.15743238	1.60969908	-0.16774610
5718	57.17000000	0.21949915	-0.29708852	0.05162790	0.35429727	0.11243277	-0.44417848	-0.77910966	0.07252162	-0.35693268	-0.33281185	-0.01914234	-1.42235682	0.39672664	0.08527256	-1.24827580	-0.15339518	0.02882439	-0.38684054	-0.66173650	0.21676172	0.57826562	0.06912255	1.55984990	-0.08295345
5719	57.18000000	0.33502252	-0.30477907	0.03639413	0.38747423	0.16129697	-0.35807334	-0.54026024	0.05511338	-0.50015186	-0.11645134	0.03757105	-1.25325671	0.43195761	0.10756877	-1.23796956	-0.12593021	0.10527927	-0.52789954	-0.49521990	0.10216017	0.47439208	0.11066312	1.50795582	-0.07647815
5720	57.19000000	0.43721674	-0.32012648	0.01990135	0.39518896	0.20784113	-0.29667680	-0.28595827	0.00781649	-0.61487964	0.05977903	0.10760464	-1.06486952	0.32772455	0.06915274	-1.20740683	-0.10234755	0.18184866	-0.69176405	-0.36598895	-0.02281546	0.33037442	0.12532562	1.46616296	-0.11092156
5721	57.20000000	0.52765219	-0.35193062	0.02015095	0.37841723	0.23057848	-0.25658164	-0.15261168	-0.04661271	-0.69029287	0.11410122	0.14231162	-0.86040654	0.17087776	0.04495237	-1.20750614	-0.09472095	0.23500493	-0.86740749	-0.22331476	-0.15894298	0.14581485	0.11842436	1.41389855	-0.18368742
5722	57.21000000	0.59921000	-0.38033035	0.03162175	0.35281395	0.22769824	-0.24363852	-0.14429126	-0.08562092	-0.72623170	0.06370457	0.11557719	-0.69366823	0.06576375	0.06880538	-1.22656501	-0.07675538	0.27652243	-1.02143217	-0.03558687	-0.29596807	-0.06316298	0.10595719	1.36133874	-0.27765720
5723	57.22000000	0.66307078	-0.39127329	0.04496009	0.31847580	0.21657287	-0.19865344	-0.14383053	-0.15841667	-0.76405678	-0.10907140	0.09784102	-0.57364876	0.02167334	0.09341233	-1.23317824	-0.07078918	0.28975476	-1.11670091	0.11819184	-0.34890987	-0.25463356	0.08218433	1.32205042	-0.34482377
5724	57.23000000	0.70689220	-0.40931106	0.05296635	0.29547294	0.19913601	-0.11866063	-0.13830066	-0.21531144	-0.82314637	-0.39128847	0.12556832	-0.50214567	0.02655334	0.09177271	-1.24948123	-0.08882886	0.29165603	-1.18489941	0.34563457	-0.41696984	-0.42438747	0.04494400	1.29159104	-0.37258912
5725	57.24000000	0.76137500	-0.40883762	0.08410643	0.28288644	0.18494134	-0.02005233	-0.14362257	-0.25500337	-0.83220087	-0.64866594	0.13142912	-0.48533435	0.03513587	0.10757465	-1.29047793	-0.01952408	0.29236151	-1.24204530	0.56033135	-0.44791894	-0.57406802	0.06165905	1.28019261	-0.35763241
5726	57.25000000	0.81558073	-0.38185385	0.11527688	0.29866421	0.17293491	0.12143207	-0.11057300	-0.26938791	-0.80642572	-0.78125243	0.11820645	-0.51118480	0.06336779	0.11733077	-1.35659847	0.16388075	0.29841195	-1.28201203	0.68365080	-0.40974072	-0.67374045	0.11279526	1.32622718	-0.31249274
5727	57.26000000	0.86090875	-0.34410121	0.15443415	0.30940650	0.13335916	0.19550516	-0.07825586	-0.29149421	-0.80569251	-0.75604540	0.11317985	-0.57296161	0.14748165	0.11892520	-1.43952873	0.37563840	0.26899548	-1.33250613	0.73447848	-0.35691327	-0.71336626	0.16624052	1.42002652	-0.23960515
